<svg version="1.0" 
	xmlns="http://www.w3.org/2000/svg" viewBox="0 0 32 32">
	<g fill="#E80C00">
		<path d="M22.9 8.4h4.7L21.3 2v4.8c0 .9.7 1.6 1.6 1.6z"/>
		<path d="M22.9 9.6a2.7 2.7 0 01-2.7-2.8V2c0-.5.3-.9.7-1.1.5-.2 1-.1 1.3.3l6.3 6.4c.3.3.4.9.3 1.3-.2.4-.6.7-1.1.7h-4.8zm-.4-4.7v1.9l.1.2.2.1h1.9l-2.2-2.2z"/>
	</g>
	<path fill="#FFF" d="M26.4 30H6.3c-.7 0-1.2-.5-1.2-1.2V3.2c0-.7.5-1.2 1.2-1.2h15v5.2c0 .7.5 1.2 1.2 1.2h5.1v20.5c0 .6-.5 1.1-1.2 1.1z"/>
	<path fill="#E80C00" d="M26.4 31.2H6.3a2.4 2.4 0 01-2.4-2.4V3.2C3.9 1.9 5 .8 6.3.8h15c.7 0 1.2.5 1.2 1.2v5.2h5.1c.3 0 .6.1.9.4.2.2.4.5.4.9V29a2.6 2.6 0 01-2.5 2.2zm0-2.4V30v-1.2zM6.3 3.2v25.6h20.1V9.6h-3.9c-.6 0-1.2-.2-1.7-.7-.5-.5-.7-1.1-.7-1.7v-4H6.3z"/>
	<path fill="#E80C00" d="M19.8 25.8H2.9c-1 0-1.7-.8-1.7-1.7V17c0-1 .8-1.7 1.7-1.7h16.9c1 0 1.7.8 1.7 1.7v7.1c0 1-.7 1.7-1.7 1.7z"/>
	<g>
		<path fill="#FFF" d="M3.8 17.8h2.6c.6 0 1.1.2 1.5.5.3.3.5.7.5 1.2s-.2.9-.5 1.2c-.4.3-.9.4-1.5.4H5.2v2.2H3.8v-5.5zm2.4 2.3c.5 0 .8-.2.8-.6l-.2-.4-.6-.2h-1v1.2h1zM9.1 17.8h2.3c.6 0 1.1.1 1.6.3.4.2.8.5 1 .9a3.3 3.3 0 01.1 3c-.2.4-.6.7-1 1-.4.2-1 .3-1.6.3H9.1v-5.5zm2.1 4.3c.5 0 .9-.1 1.2-.4s.4-.7.4-1.2c0-1.1-.5-1.6-1.6-1.6h-.7v3.2h.7zM15.1 23.3v-5.5H19v1.1h-2.4v1h2.3V21h-2.3v2.2h-1.5z"/>
	</g>
</svg>